<?xml version="1.0" standalone="no"?>
<!DOCTYPE svg PUBLIC "-//W3C//DTD SVG 20010904//EN"
 "http://www.w3.org/TR/2001/REC-SVG-20010904/DTD/svg10.dtd">
<svg version="1.0" xmlns="http://www.w3.org/2000/svg"
 width="5120.000000pt" height="4096.000000pt" viewBox="0 0 5120.000000 4096.000000"
 preserveAspectRatio="xMidYMid meet">

<g transform="translate(0.000000,4096.000000) scale(0.100000,-0.100000)"
fill="#000000" stroke="none">
<path d="M25632 27568 c-150 -416 -213 -771 -199 -1114 25 -576 228 -1087 666
-1669 112 -149 320 -395 334 -395 7 0 3 7 -8 16 -20 15 -20 15 34 5 2 -1 -2
-8 -9 -16 -17 -21 0 -38 18 -19 7 8 9 14 5 14 -12 0 -12 -23 -15 965 -3 883
-3 890 -23 887 -16 -2 -17 -1 -5 7 8 5 18 7 22 5 4 -3 6 5 4 18 -3 13 -5 27
-5 31 -1 5 -5 6 -10 3 -5 -3 -8 2 -7 12 0 9 -5 16 -11 15 -7 -2 -12 1 -10 5 1
4 -30 44 -70 87 -288 318 -493 667 -628 1068 l-53 157 -30 -82z m784 -3113 c1
-8 -1 -17 -5 -19 -4 -3 -7 6 -7 19 0 25 8 25 12 0z m34 -4 c0 -6 -4 -12 -8
-15 -5 -3 -9 1 -9 9 0 8 4 15 9 15 4 0 8 -4 8 -9z"/>
<path d="M24931 26107 c-216 -454 -311 -827 -311 -1227 0 -579 207 -1143 627
-1709 118 -159 174 -227 185 -223 5 1 7 -2 4 -7 -4 -5 0 -13 7 -18 7 -4 17
-16 20 -27 6 -15 10 -16 22 -6 8 6 20 9 27 5 7 -4 5 0 -6 9 -11 9 -15 20 -10
28 6 10 5 11 -7 1 -12 -10 -14 129 -14 1068 0 593 4 1079 8 1079 11 0 -13 43
-30 53 -7 5 -11 12 -8 18 4 5 1 9 -5 9 -6 0 -9 4 -5 10 3 5 -5 20 -17 32 -13
13 -22 26 -21 30 2 4 -40 93 -92 198 -125 255 -218 493 -310 795 -1 6 -30 -48
-64 -118z m533 -1008 c-3 -5 -10 -7 -15 -3 -5 3 -7 10 -3 15 3 5 10 7 15 3 5
-3 7 -10 3 -15z m1 -2148 c3 -5 2 -12 -3 -15 -5 -3 -9 1 -9 9 0 17 3 19 12 6z"/>
<path d="M26527 26209 c7 -7 15 -10 18 -7 3 3 -2 9 -12 12 -14 6 -15 5 -6 -5z"/>
<path d="M25525 25001 c-3 -5 -2 -12 3 -15 5 -3 9 1 9 9 0 17 -3 19 -12 6z"/>
<path d="M26512 24292 c8 -9 14 -10 16 -3 2 6 9 8 15 4 7 -3 9 -2 4 2 -4 5
-16 9 -27 10 -16 1 -17 -1 -8 -13z"/>
<path d="M30710 23878 c-160 -36 -485 -142 -626 -205 l-42 -19 60 -74 c151
-188 308 -471 383 -690 78 -225 130 -491 156 -790 13 -153 16 -647 5 -880 l-7
-155 25 30 c14 17 25 35 26 42 0 6 3 13 8 15 9 4 62 75 62 83 0 3 -4 4 -9 0
-5 -3 -13 0 -17 6 -4 8 -3 9 4 5 7 -4 12 -3 12 3 0 6 7 7 17 4 10 -4 14 -2 10
4 -4 6 -8 598 -10 1316 -2 1037 1 1303 10 1300 7 -3 10 -9 7 -14 -3 -5 2 -6
12 -2 14 5 13 8 -7 19 -13 7 -26 13 -29 12 -3 0 -25 -5 -50 -10z"/>
<path d="M37645 22294 c-144 -37 -169 -78 -185 -314 -10 -154 0 -276 27 -323
11 -19 39 -42 68 -57 46 -23 61 -25 185 -25 117 0 141 3 182 22 25 11 53 32
61 45 27 41 38 130 38 288 -1 161 -14 247 -45 296 -30 44 -98 67 -211 70 -55
2 -109 1 -120 -2z"/>
<path d="M25520 22202 c0 -4 -5 -49 -10 -100 -27 -256 54 -603 219 -937 108
-218 269 -474 290 -461 3 2 5 158 3 345 -1 196 -6 340 -11 336 -11 -6 -8 21 2
31 13 13 7 36 -13 58 -135 146 -306 399 -422 623 -32 62 -58 109 -58 105z"/>
<path d="M32875 22091 c-49 -22 -73 -48 -91 -98 -27 -78 -11 -168 40 -219 37
-37 94 -52 234 -61 l92 -6 0 -1424 0 -1423 -92 0 c-106 0 -199 -19 -230 -46
-32 -29 -48 -77 -48 -144 0 -74 17 -117 59 -153 53 -44 88 -48 416 -45 382 4
348 -16 355 205 5 154 5 157 22 131 34 -51 142 -160 203 -204 267 -190 699
-237 1070 -117 375 122 698 443 824 819 46 138 64 258 64 429 -1 383 -117 672
-377 931 -256 257 -546 374 -926 374 -349 0 -621 -102 -837 -313 l-83 -81 0
698 c0 480 -3 704 -11 718 -23 43 -61 48 -361 48 -253 0 -287 -2 -323 -19z
m1811 -1486 c153 -39 283 -115 395 -231 108 -114 160 -202 206 -351 25 -82 27
-101 27 -273 0 -213 -14 -284 -84 -426 -83 -170 -205 -291 -375 -374 -148 -72
-216 -85 -420 -84 -193 0 -272 16 -400 79 -266 132 -435 383 -467 698 -32 300
60 568 258 757 83 79 109 98 200 144 187 94 438 117 660 61z"/>
<path d="M44908 22100 c-78 -24 -120 -87 -121 -185 -2 -160 91 -204 426 -205
l107 0 0 -525 c0 -289 -3 -525 -6 -525 -4 0 -48 39 -99 88 -148 141 -319 229
-535 275 -128 27 -392 29 -530 4 -190 -35 -381 -117 -529 -227 -96 -72 -253
-235 -314 -328 -145 -218 -217 -470 -217 -764 0 -342 86 -602 281 -850 184
-234 438 -387 729 -439 107 -20 363 -17 473 5 247 48 475 169 640 339 l67 70
1 -134 c0 -148 11 -197 49 -216 19 -10 99 -13 345 -11 302 3 322 4 355 24 68
40 100 122 85 219 -15 103 -94 145 -272 145 l-103 0 0 1575 c0 1339 -2 1581
-14 1610 -27 64 -34 65 -433 64 -197 0 -370 -4 -385 -9z m-255 -1486 c336 -69
593 -339 653 -686 32 -183 7 -421 -61 -573 -88 -199 -271 -376 -466 -449 -122
-46 -217 -59 -378 -53 -208 8 -327 44 -477 148 -178 123 -298 310 -340 527
-20 108 -18 317 5 429 65 315 290 562 584 643 148 41 327 46 480 14z"/>
<path d="M6755 21861 c-334 -39 -590 -161 -801 -383 -126 -132 -204 -282 -234
-454 -19 -104 -8 -328 20 -424 79 -273 273 -449 620 -564 157 -52 303 -81 630
-126 336 -46 384 -56 496 -110 180 -87 274 -239 274 -445 0 -193 -89 -349
-266 -465 -133 -87 -281 -129 -489 -137 -325 -14 -596 78 -759 258 -67 75
-115 165 -154 290 -46 150 -80 205 -151 247 -81 47 -213 31 -270 -33 -56 -64
-58 -100 -33 -550 15 -269 27 -417 37 -451 34 -117 99 -164 222 -164 138 0
187 44 218 192 l5 27 68 -30 c485 -218 1074 -219 1492 -3 279 144 464 386 516
674 16 90 18 294 3 376 -49 278 -201 476 -464 604 -179 86 -297 114 -695 165
-317 40 -410 56 -508 89 -169 58 -278 140 -334 253 -27 54 -32 78 -36 161 -5
110 7 182 44 262 75 161 236 284 449 341 120 33 383 33 510 1 168 -42 319
-137 396 -248 16 -24 50 -91 74 -150 24 -58 55 -123 69 -145 75 -112 235 -132
327 -40 62 62 64 81 39 445 -22 343 -31 416 -55 453 -30 46 -62 57 -169 61
-139 4 -182 -19 -201 -110 l-5 -27 -43 18 c-84 36 -293 100 -397 121 -117 24
-330 34 -445 21z"/>
<path d="M30801 21324 c0 -11 3 -14 6 -6 3 7 2 16 -1 19 -3 4 -6 -2 -5 -13z"/>
<path d="M10097 21095 c-545 -88 -945 -412 -1102 -891 -63 -193 -84 -491 -49
-723 79 -531 457 -927 997 -1041 316 -68 719 -42 1097 69 234 69 487 180 587
259 91 73 127 186 84 270 -23 46 -46 67 -94 87 -84 35 -163 12 -547 -157 -315
-139 -574 -192 -830 -168 -254 23 -421 90 -571 228 -128 118 -210 277 -243
471 -9 52 -16 102 -16 112 0 17 56 18 1058 22 736 3 1072 7 1105 15 78 19 112
40 138 85 23 40 24 51 23 197 -1 133 -5 169 -26 251 -58 215 -149 372 -312
534 -196 195 -388 300 -671 366 -119 28 -492 36 -628 14z m480 -381 c318 -65
556 -288 634 -593 10 -41 19 -85 19 -98 l0 -23 -900 0 c-851 0 -900 1 -900 18
0 9 13 54 29 98 102 295 333 506 636 583 107 26 119 28 273 30 88 0 159 -4
209 -15z"/>
<path d="M13563 21100 c-404 -34 -739 -160 -807 -304 -18 -39 -21 -123 -5
-179 14 -51 74 -112 126 -127 58 -18 127 0 362 94 297 120 434 147 626 126
180 -19 288 -64 374 -155 87 -92 134 -218 147 -396 7 -87 6 -91 -12 -85 -47
15 -209 46 -319 62 -164 24 -516 24 -670 0 -439 -68 -727 -239 -858 -509 -69
-139 -82 -203 -82 -392 0 -137 3 -171 23 -239 77 -267 285 -469 565 -550 410
-119 909 1 1299 312 l77 61 5 -27 c3 -15 8 -54 12 -87 14 -120 55 -192 127
-220 38 -14 82 -16 323 -13 276 3 279 3 323 28 71 41 106 138 82 228 -28 103
-100 132 -323 132 l-138 0 0 678 c0 842 -6 904 -112 1122 -45 93 -61 116 -142
196 -125 124 -253 188 -456 229 -91 19 -403 27 -547 15z m408 -1310 c111 -12
243 -37 349 -68 l65 -19 0 -184 c0 -181 0 -185 -28 -241 -90 -184 -392 -369
-702 -429 -40 -8 -132 -14 -215 -14 -121 0 -156 4 -215 22 -272 86 -405 319
-315 556 50 132 192 248 382 313 185 63 446 87 679 64z"/>
<path d="M16905 21103 c-498 -43 -814 -247 -902 -583 -11 -44 -17 -104 -17
-185 0 -81 6 -141 17 -185 69 -262 277 -443 606 -526 152 -39 305 -54 646 -63
270 -8 332 -12 397 -29 134 -36 201 -81 246 -166 25 -46 27 -61 27 -161 0
-102 -2 -114 -28 -164 -57 -108 -179 -195 -337 -242 -106 -31 -367 -38 -512
-15 -132 22 -303 80 -404 137 -112 62 -217 170 -269 274 -83 168 -113 195
-214 195 -90 0 -145 -35 -170 -109 -14 -44 -15 -670 -1 -722 24 -87 83 -140
164 -147 68 -5 121 12 229 74 l81 47 170 -37 c295 -62 406 -77 616 -83 218 -6
350 8 508 53 319 91 543 299 613 569 26 101 29 285 5 395 -38 183 -158 342
-321 427 -206 107 -403 144 -872 163 -466 19 -635 59 -718 167 -88 115 -64
297 53 411 57 56 161 113 247 137 85 23 282 30 401 15 257 -32 422 -123 637
-351 139 -148 182 -179 251 -179 74 0 116 25 146 85 l25 50 0 300 0 301 -25
49 c-34 66 -76 90 -157 90 -55 0 -73 -6 -167 -55 l-107 -54 -127 33 c-192 51
-277 69 -384 80 -91 10 -261 12 -353 4z"/>
<path d="M24085 21100 c-192 -30 -391 -127 -580 -283 l-80 -66 -5 109 c-9 178
-13 180 -373 180 -291 0 -342 -7 -389 -57 -63 -67 -63 -207 1 -271 39 -39 97
-54 226 -61 l110 -6 0 -890 0 -890 -121 -6 c-196 -9 -254 -51 -254 -186 0 -73
12 -108 48 -146 51 -53 87 -57 521 -57 388 0 483 6 539 32 43 20 66 80 66 168
0 146 -46 181 -246 188 l-128 4 0 630 c0 701 -1 690 68 823 44 83 169 213 254
264 169 99 350 131 535 96 203 -39 338 -167 404 -385 23 -74 23 -80 27 -751
l3 -677 -128 -4 c-152 -5 -198 -22 -229 -85 -25 -52 -24 -166 2 -219 37 -77
85 -84 557 -84 402 0 484 7 539 44 86 57 102 202 32 285 -37 44 -104 61 -241
61 l-113 0 0 698 c0 408 -5 726 -10 767 -47 325 -207 568 -455 690 -49 24
-128 54 -175 65 -98 24 -312 34 -405 20z"/>
<path d="M41835 21095 c-339 -55 -630 -235 -917 -568 l-58 -68 0 246 c0 204
-3 251 -16 276 -29 57 -45 59 -466 59 -426 0 -434 -2 -490 -69 -67 -79 -40
-250 45 -286 54 -22 180 -35 348 -35 l159 0 0 -894 0 -895 -297 -3 c-277 -3
-300 -4 -332 -23 -53 -31 -74 -67 -79 -135 -6 -83 4 -125 40 -165 59 -68 21
-66 1119 -63 l984 3 42 22 c56 30 77 84 71 187 -4 80 -18 110 -72 150 -27 20
-40 21 -542 24 l-514 3 0 580 0 580 103 112 c314 340 626 527 878 527 89 0
123 -11 294 -93 132 -64 157 -72 206 -72 45 1 67 7 105 31 94 58 141 149 131
255 -12 141 -134 252 -332 304 -86 23 -299 28 -410 10z"/>
<path d="M20332 21084 c-388 -56 -713 -244 -935 -539 -107 -143 -184 -325
-223 -530 -24 -123 -24 -394 0 -524 56 -304 205 -564 432 -752 104 -87 151
-118 259 -171 186 -93 362 -140 597 -160 322 -26 645 31 895 158 128 65 208
122 318 225 195 185 311 398 372 680 28 131 25 448 -5 588 -55 250 -164 451
-344 631 -217 218 -486 348 -821 395 -127 18 -418 18 -545 -1z m565 -398 c305
-85 548 -315 641 -606 37 -117 46 -181 45 -335 -1 -128 -5 -165 -27 -249 -47
-180 -125 -314 -253 -437 -190 -182 -402 -262 -693 -261 -289 0 -501 79 -688
256 -189 180 -282 410 -282 701 0 279 83 495 259 678 146 153 330 245 556 281
17 2 102 3 190 1 135 -3 175 -7 252 -29z"/>
<path d="M36885 21025 c-57 -20 -102 -73 -110 -129 -12 -76 2 -132 42 -177 58
-64 90 -69 435 -69 l298 0 0 -895 0 -894 -477 -3 c-462 -3 -479 -4 -518 -24
-57 -30 -85 -83 -85 -162 0 -110 45 -171 142 -192 38 -8 371 -10 1198 -8 1106
3 1146 4 1184 22 53 27 75 78 76 174 0 87 -21 137 -72 167 -32 19 -54 20 -530
23 l-498 3 0 1045 c0 1165 5 1088 -70 1118 -35 14 -99 16 -508 16 -376 -1
-475 -4 -507 -15z"/>
<path d="M26325 17683 c-66 -47 -309 -219 -540 -381 -231 -163 -438 -309 -460
-325 l-40 -30 55 7 c203 25 580 119 880 220 145 49 184 66 182 78 -1 9 2 19 8
23 5 3 7 0 4 -8 -3 -10 2 -14 18 -13 l23 1 5 223 c3 123 2 230 -3 237 -4 8 -3
16 2 20 11 6 4 35 -8 35 -3 -1 -60 -40 -126 -87z m98 12 c-7 -21 -12 -19 -10
4 0 11 5 18 9 15 4 -3 5 -11 1 -19z"/>
<path d="M26511 17307 c-8 -10 -7 -14 4 -14 8 0 12 4 9 8 -2 4 2 10 8 12 8 4
9 6 2 6 -6 1 -17 -5 -23 -12z"/>
<path d="M32830 16185 l0 -1045 75 0 75 0 0 445 c0 283 4 463 11 497 16 75 70
185 121 243 55 63 144 120 227 146 76 24 226 28 306 8 121 -29 224 -110 271
-214 50 -108 54 -154 54 -657 l0 -468 75 0 75 0 0 458 c0 474 -5 548 -45 667
-59 175 -199 303 -385 352 -46 12 -102 17 -190 17 -108 -1 -136 -5 -207 -28
-122 -40 -220 -112 -300 -221 l-22 -30 -1 438 0 437 -70 0 -70 0 0 -1045z"/>
<path d="M36860 16185 l0 -1046 73 3 72 3 3 1043 2 1042 -75 0 -75 0 0 -1045z"/>
<path d="M39840 16768 l0 -463 -32 50 c-74 119 -219 220 -378 262 -101 28
-320 25 -425 -5 -199 -58 -359 -192 -443 -374 -85 -184 -94 -462 -22 -660 34
-94 63 -146 119 -213 215 -260 649 -324 951 -140 70 42 161 130 201 193 l29
46 0 -162 0 -163 73 3 72 3 2 1043 3 1042 -75 0 -75 0 0 -462z m-430 -294
c228 -67 385 -252 419 -494 45 -326 -138 -619 -434 -695 -88 -22 -243 -20
-338 4 -109 28 -170 64 -252 146 -118 117 -165 243 -165 445 0 58 7 135 15
172 60 284 301 458 610 443 50 -2 115 -12 145 -21z"/>
<path d="M37721 17196 c-33 -18 -50 -53 -51 -104 0 -37 6 -50 34 -78 28 -28
42 -34 75 -34 92 0 144 68 120 156 -18 63 -114 95 -178 60z"/>
<path d="M35420 16643 c-355 -29 -615 -260 -680 -603 -16 -82 -13 -268 5 -345
47 -206 160 -367 322 -464 322 -191 771 -123 992 151 110 136 164 302 163 503
-1 333 -172 594 -462 708 -92 36 -241 58 -340 50z m230 -163 c139 -38 285
-156 352 -285 130 -251 89 -577 -97 -760 -119 -117 -273 -171 -465 -162 -229
10 -406 120 -501 312 -120 243 -73 562 110 744 69 69 169 129 251 151 104 28
250 28 350 0z"/>
<path d="M41262 16629 c-377 -57 -630 -345 -641 -729 -10 -369 222 -677 574
-761 130 -31 285 -24 406 18 134 46 260 140 346 258 l22 30 1 -152 0 -153 75
0 75 0 0 740 0 740 -75 0 -75 0 0 -157 0 -156 -31 44 c-123 173 -304 269 -534
283 -44 2 -108 0 -143 -5z m268 -155 c270 -63 450 -301 450 -594 0 -356 -253
-613 -603 -612 -156 1 -267 37 -382 125 -177 135 -262 388 -210 632 47 219
217 397 431 449 79 19 234 19 314 0z"/>
<path d="M44990 16633 c-14 -2 -59 -13 -100 -24 -239 -64 -371 -242 -330 -445
37 -184 183 -272 545 -329 243 -39 357 -74 424 -131 56 -48 73 -84 72 -155 0
-149 -102 -238 -311 -275 -162 -28 -352 -1 -483 68 -34 18 -93 63 -131 100
l-70 67 -53 -45 c-62 -53 -62 -58 23 -140 70 -69 152 -117 260 -153 111 -37
194 -51 309 -51 288 1 485 90 572 260 25 50 28 65 28 160 0 126 -22 186 -90
249 -86 79 -188 116 -460 167 -228 42 -296 59 -349 86 -103 51 -146 110 -146
198 0 159 172 260 445 260 169 0 282 -32 393 -110 32 -22 60 -40 63 -40 3 0
25 22 48 49 l41 50 -64 46 c-141 100 -297 146 -496 144 -63 -1 -126 -4 -140
-6z"/>
<path d="M37710 15880 l0 -740 75 0 75 0 0 740 0 740 -75 0 -75 0 0 -740z"/>
<path d="M42640 16611 c0 -6 129 -326 286 -713 157 -387 288 -712 291 -723 2
-12 -52 -151 -131 -333 l-135 -313 82 3 81 3 32 75 c17 41 215 500 439 1020
224 520 411 955 416 968 8 22 7 22 -72 22 l-80 0 -20 -47 c-126 -291 -375
-883 -435 -1035 -81 -205 -81 -204 -90 -196 -6 7 -249 613 -404 1010 l-105
268 -77 0 c-43 0 -78 -4 -78 -9z"/>
</g>
</svg>
